# xmcd CD database file
#
# Track frame offsets:
#	150
#	28702
#	55002
#	87902
#	107545
#	127915
#	160350
#	183337
#	213125
#
# Disc length: 3128 seconds
#
# Revision: 3
# Processed by: cddbd v1.5.2PL0 Copyright (c) Steve Scherf et al.
# Submitted via: CDex 1.51
#
DISCID=6a0c3609
DTITLE=Cyclone Temple - I Hate Therefore I Am
DYEAR=1991
DGENRE=Thrash Metal
TTITLE0=Why
TTITLE1=Sister (Until We Meet Again)
TTITLE2=Words Are Just Words
TTITLE3=Public Enemy
TTITLE4=In God We Trust
TTITLE5=I Hate Therefore I Am
TTITLE6=March For Me Die For Me
TTITLE7=Born To Lose
TTITLE8=Silence So Loud
EXTD=YEAR: 1991
EXTT0=
EXTT1=
EXTT2=
EXTT3=
EXTT4=
EXTT5=
EXTT6=
EXTT7=
EXTT8=
PLAYORDER=
